HIERARCHY
ROOT Hips
{
	OFFSET -3.958830 18.904000 13.208200
	CHANNELS 6 Xposition Yposition Zposition Zrotation Yrotation Xrotation 
	JOINT LHipJoint
	{
		OFFSET 0.000000 0.000000 0.000000
		CHANNELS 3 Zrotation Yrotation Xrotation
		JOINT LeftUpLeg
		{
			OFFSET 1.800000 -1.400000 0.085000
			CHANNELS 3 Zrotation Yrotation Xrotation
			JOINT LeftLeg
			{
				OFFSET 2.215000 -6.000000 0.000000
				CHANNELS 3 Zrotation Yrotation Xrotation
				JOINT LeftFoot
				{
					OFFSET 2.500000 -6.900000 0.000000
					CHANNELS 3 Zrotation Yrotation Xrotation
					JOINT LeftToeBase
					{
						OFFSET 0.200000 -0.500000 1.950000
						CHANNELS 3 Zrotation Yrotation Xrotation
						End Site
						{
							OFFSET 0.000000 0.000000 0.000000
						}
					}
				}
			}
		}
	}
	JOINT RHipJoint
	{
		OFFSET 0.000000 0.000000 0.000000
		CHANNELS 3 Zrotation Yrotation Xrotation
		JOINT RightUpLeg
		{
			OFFSET -1.800000 -1.400000 0.085000
			CHANNELS 3 Zrotation Yrotation Xrotation
			JOINT RightLeg
			{
				OFFSET -2.215000 -6.000000 0.000000
				CHANNELS 3 Zrotation Yrotation Xrotation
				JOINT RightFoot
				{
					OFFSET -2.500000 -6.900000 0.000000
					CHANNELS 3 Zrotation Yrotation Xrotation
					JOINT RightToeBase
					{
						OFFSET -0.200000 -0.500000 1.950000
						CHANNELS 3 Zrotation Yrotation Xrotation
						End Site
						{
							OFFSET 0.000000 0.000000 0.000000
						}
					}
				}
			}
		}
	}
	JOINT LowerBack
	{
		OFFSET 0.000000 0.000000 0.000000
		CHANNELS 3 Zrotation Yrotation Xrotation
		JOINT Spine
		{
			OFFSET -0.087000 1.940000 -0.288900
			CHANNELS 3 Zrotation Yrotation Xrotation
			JOINT Spine1
			{
				OFFSET 0.000000 1.950000 0.060000
				CHANNELS 3 Zrotation Yrotation Xrotation
				JOINT Neck
				{
					OFFSET 0.000000 0.000000 0.000000
					CHANNELS 3 Zrotation Yrotation Xrotation
					JOINT Neck1
					{
						OFFSET 0.000000 1.600000 0.340000
						CHANNELS 3 Zrotation Yrotation Xrotation
						JOINT Head
						{
							OFFSET 0.000000 1.667000 -0.240000
							CHANNELS 3 Zrotation Yrotation Xrotation
							End Site
							{
								OFFSET 0.000000 0.000000 0.000000
							}
						}
					}
				}
				JOINT LeftShoulder
				{
					OFFSET 0.000000 0.000000 0.000000
					CHANNELS 3 Zrotation Yrotation Xrotation
					JOINT LeftArm
					{
						OFFSET 2.700000 1.550000 -0.730000
						CHANNELS 3 Zrotation Yrotation Xrotation
						JOINT LeftForeArm
						{
							OFFSET 5.450000 0.000000 0.000000
							CHANNELS 3 Zrotation Yrotation Xrotation
							JOINT LeftHand
							{
								OFFSET 3.450000 0.000000 0.000000
								CHANNELS 3 Zrotation Yrotation Xrotation
								JOINT LeftHandIndex1
								{
									OFFSET 0.750000 0.000000 0.000000
									CHANNELS 3 Zrotation Yrotation Xrotation
									End Site
									{
										OFFSET 0.000000 0.000000 0.000000
									}
								}
							}
						}
					}
				}
				JOINT RightShoulder
				{
					OFFSET 0.000000 0.000000 0.000000
					CHANNELS 3 Zrotation Yrotation Xrotation
					JOINT RightArm
					{
						OFFSET -2.700000 1.550000 -0.730000
						CHANNELS 3 Zrotation Yrotation Xrotation
						JOINT RightForeArm
						{
							OFFSET -5.450000 0.000000 0.000000
							CHANNELS 3 Zrotation Yrotation Xrotation
							JOINT RightHand
							{
								OFFSET -3.450000 0.000000 0.000000
								CHANNELS 3 Zrotation Yrotation Xrotation
								JOINT RightHandIndex1
								{
									OFFSET -0.750000 0.000000 0.000000
									CHANNELS 3 Zrotation Yrotation Xrotation
									End Site
									{
										OFFSET 0.000000 0.000000 0.000000
									}
								}
							}
						}
					}
				}
			}
		}
	}
}
MOTION
Frames: 13
Frame Time: 0.016667
0.194430 16.858430 -1.360620 -4.499601 -7.258425 3.519739 -14.886911 13.272621 2.594305 12.189242 -1.229321 -19.723662 -5.996433 8.960871 26.306702 -0.582877 6.213736 2.567495 -0.088020 -0.499320 0.016240 18.519331 -11.073696 2.612019 -7.614074 1.045099 -10.348835 10.541656 -6.268134 12.427063 0.073009 -4.285548 3.130695 0.024380 0.857300 0.185750 -4.271717 -1.222055 -6.674865 13.980856 2.096118 4.377271 -7.574757 3.299041 6.642641 1.498916 -6.744067 -7.921117 -13.167813 18.159750 28.834408 -5.116530 18.279490 5.904650 -5.394659 1.389113 2.761016 -30.703938 -10.202279 -1.289004 52.272934 -55.280228 -26.142469 -4.236893 2.507775 0.194550 0.726100 -0.602290 0.089840 1.863130 3.158869 2.065716 30.101176 15.174858 -2.867348 -22.503853 33.326171 -5.341558 1.697875 -1.587101 -0.603350 0.311230 0.320840 -0.316180 
0.194890 16.858200 -1.359690 -4.503356 -7.289223 3.504221 -14.889123 13.277213 2.594489 12.196219 -1.219327 -19.713494 -5.993558 8.971839 26.324649 -0.580584 6.220356 2.567040 -0.092840 -0.505030 0.012610 18.516562 -11.072016 2.612277 -7.618274 1.039313 -10.322723 10.537801 -6.266786 12.416551 0.076027 -4.287939 3.132215 0.021700 0.860370 0.184520 -4.263829 -1.233522 -6.677769 13.902946 2.135698 4.378462 -7.374925 3.313647 6.713682 1.399897 -6.703059 -7.971665 -13.115946 18.020796 28.898570 -5.127360 18.194190 6.028290 -4.996778 1.334824 2.813814 -30.364975 -10.257897 -1.211157 51.693005 -55.168458 -25.734427 -4.240372 2.522119 0.191990 0.728620 -0.606040 0.089270 1.682515 3.201197 2.107409 30.097315 15.151848 -2.877408 -22.624322 33.240506 -5.370550 1.698643 -1.588244 -0.605010 0.311420 0.322710 -0.315680 
0.195410 16.857950 -1.358690 -4.504011 -7.315757 3.491539 -14.891207 13.280800 2.595008 12.200664 -1.211170 -19.713801 -5.990180 8.985980 26.356980 -0.576864 6.228735 2.566482 -0.098280 -0.511090 0.008910 18.513992 -11.070257 2.612718 -7.631037 1.033092 -10.296474 10.543506 -6.266902 12.398702 0.079062 -4.291378 3.133170 0.018380 0.864210 0.183620 -4.256536 -1.243607 -6.680909 13.826890 2.178911 4.378192 -7.173334 3.328840 6.776880 1.295916 -6.658616 -8.016413 -13.056056 17.870245 28.957846 -5.149640 18.110280 6.167970 -4.574245 1.298109 2.860058 -30.005933 -10.325894 -1.120475 50.979859 -55.101578 -25.271126 -4.244475 2.538620 0.188290 0.731790 -0.610110 0.088580 1.485930 3.222562 2.145027 30.110048 15.125496 -2.882075 -22.728795 33.169521 -5.396185 1.699930 -1.589994 -0.606170 0.311410 0.324560 -0.314570 
0.195930 16.857520 -1.357620 -4.502864 -7.342634 3.474412 -14.893393 13.284456 2.595522 12.205534 -1.202136 -19.711423 -5.989532 9.002623 26.393802 -0.573103 6.237899 2.565345 -0.103120 -0.516310 0.005490 18.511269 -11.068016 2.613561 -7.650652 1.025152 -10.262255 10.559803 -6.268223 12.370643 0.081507 -4.295587 3.133577 0.015450 0.867610 0.182630 -4.248871 -1.254664 -6.684662 13.746210 2.229241 4.383627 -6.950948 3.348651 6.836704 1.181362 -6.615231 -8.059094 -13.002062 17.710868 29.021805 -5.170780 18.012860 6.294150 -4.120223 1.276302 2.902739 -29.644001 -10.411027 -1.014678 50.074044 -55.082712 -24.727811 -4.247794 2.558219 0.184820 0.734450 -0.613740 0.088070 1.278283 3.230413 2.181476 30.102071 15.078992 -2.889342 -22.812759 33.126130 -5.415382 1.700970 -1.591844 -0.607140 0.311520 0.326150 -0.313300 
0.196420 16.856970 -1.356470 -4.505649 -7.365015 3.454825 -14.895588 13.287865 2.595910 12.215727 -1.191960 -19.707579 -5.991754 9.020405 26.427810 -0.568946 6.246767 2.563935 -0.107800 -0.520880 0.001910 18.508608 -11.065406 2.614665 -7.670431 1.015205 -10.219870 10.584331 -6.270751 12.337423 0.083878 -4.300826 3.133682 0.013000 0.870520 0.181470 -4.241337 -1.266003 -6.688642 13.666820 2.282072 4.387874 -6.711549 3.367396 6.898003 1.058362 -6.569377 -8.101043 -12.944818 17.548704 29.089131 -5.184520 17.911170 6.423380 -3.640854 1.258656 2.945563 -29.271126 -10.501972 -0.899596 48.975596 -55.105687 -24.102647 -4.250844 2.581049 0.180780 0.737050 -0.617290 0.087460 1.062377 3.230914 2.217125 30.079930 15.023234 -2.894487 -22.868522 33.095371 -5.426235 1.702101 -1.593990 -0.607780 0.311240 0.327440 -0.311880 
0.196850 16.856370 -1.355260 -4.515936 -7.389197 3.434410 -14.897261 13.289886 2.596913 12.242006 -1.179321 -19.703951 -6.009097 9.046891 26.464854 -0.564442 6.259223 2.561522 -0.112190 -0.525510 -0.000610 18.506543 -11.063085 2.616018 -7.682755 1.005292 -10.176464 10.611873 -6.274315 12.306791 0.085702 -4.305835 3.133974 0.010530 0.873240 0.180150 -4.235410 -1.274433 -6.693615 13.601937 2.339307 4.398403 -6.473847 3.389412 6.952074 0.933631 -6.519734 -8.138920 -12.879867 17.370317 29.162447 -5.215290 17.804060 6.534950 -3.150223 1.246969 2.979044 -28.865781 -10.599642 -0.774364 47.663844 -55.164808 -23.381038 -4.253930 2.606188 0.177280 0.739400 -0.620390 0.086950 0.836586 3.221902 2.254192 30.067865 14.957931 -2.901646 -22.929662 33.075564 -5.438962 1.703016 -1.595709 -0.608710 0.311700 0.328380 -0.310810 
0.197300 16.855630 -1.354050 -4.530876 -7.407313 3.414115 -14.898662 13.290859 2.598046 12.272639 -1.167140 -19.705145 -6.027998 9.075630 26.509021 -0.559834 6.272981 2.558695 -0.115920 -0.529520 -0.003280 18.504855 -11.060876 2.617544 -7.695183 0.995802 -10.132711 10.652469 -6.282531 12.283030 0.086996 -4.312656 3.134051 0.008340 0.876080 0.179020 -4.230540 -1.280960 -6.698816 13.544422 2.397585 4.406838 -6.236399 3.410217 7.007629 0.807257 -6.463871 -8.174960 -12.801030 17.189832 29.237673 -5.235200 17.690810 6.645410 -2.657592 1.229714 3.007466 -28.419086 -10.689760 -0.645826 46.173944 -55.268243 -22.588788 -4.256947 2.634421 0.173810 0.741890 -0.623590 0.086960 0.611715 3.211148 2.294537 30.044495 14.873653 -2.913805 -22.978796 33.084592 -5.450661 1.702805 -1.597812 -0.609370 0.312180 0.329140 -0.309720 
0.197900 16.854790 -1.352900 -4.547156 -7.420538 3.387034 -14.899782 13.292685 2.598738 12.297613 -1.155276 -19.701068 -6.035436 9.100015 26.558454 -0.554737 6.285068 2.555947 -0.118600 -0.532440 -0.005130 18.503114 -11.060013 2.619113 -7.709876 0.985760 -10.086317 10.692120 -6.293727 12.273782 0.087393 -4.320515 3.132910 0.006250 0.877850 0.178940 -4.225905 -1.286513 -6.704445 13.487243 2.459958 4.423683 -5.993724 3.433326 7.059996 0.681220 -6.399714 -8.209074 -12.706728 16.996176 29.325925 -5.255150 17.569700 6.743090 -2.170543 1.206921 3.029180 -27.931799 -10.781195 -0.511789 44.536231 -55.426695 -21.747178 -4.259097 2.665983 0.170550 0.743740 -0.625600 0.087040 0.391129 3.199339 2.338385 30.010378 14.771666 -2.928489 -23.007796 33.101218 -5.455705 1.703135 -1.600420 -0.608810 0.311440 0.329180 -0.308340 
0.198590 16.853890 -1.352020 -4.560053 -7.440937 3.355828 -14.901119 13.295177 2.599797 12.319181 -1.142921 -19.695136 -6.042123 9.126217 26.615544 -0.550321 6.298716 2.552418 -0.121390 -0.536100 -0.007240 18.500868 -11.059633 2.620571 -7.730213 0.977410 -10.043508 10.732527 -6.307701 12.276682 0.087700 -4.328818 3.131616 0.003840 0.879430 0.178960 -4.220052 -1.292369 -6.710888 13.415596 2.528019 4.448936 -5.736029 3.461336 7.113747 0.556610 -6.329375 -8.245640 -12.600871 16.796284 29.425561 -5.275260 17.443910 6.835310 -1.697507 1.168588 3.050297 -27.407819 -10.847987 -0.381060 42.794621 -55.643159 -20.882524 -4.260905 2.699023 0.168270 0.745330 -0.627700 0.087030 0.183345 3.200909 2.388840 29.951831 14.653948 -2.951705 -23.037352 33.122685 -5.459658 1.702594 -1.602451 -0.608600 0.310720 0.329880 -0.307510 
0.199140 16.853180 -1.351310 -4.576784 -7.449906 3.311904 -14.902420 13.298709 2.600391 12.346243 -1.128919 -19.678210 -6.044189 9.149041 26.666203 -0.546889 6.310192 2.548627 -0.123800 -0.539170 -0.008550 18.498492 -11.059709 2.622340 -7.743031 0.964253 -9.982674 10.762893 -6.319294 12.270232 0.087268 -4.336251 3.130080 0.001400 0.879420 0.178800 -4.214010 -1.299192 -6.718237 13.342089 2.588221 4.485895 -5.474637 3.480817 7.171188 0.436670 -6.253429 -8.282740 -12.487333 16.598828 29.555859 -5.306330 17.329560 6.896030 -1.254376 1.112060 3.069957 -26.829627 -10.875219 -0.260314 40.964653 -55.920411 -20.000127 -4.261365 2.732754 0.167420 0.745730 -0.628670 0.086130 -0.004078 3.214832 2.442036 29.874862 14.537846 -2.979159 -23.070466 33.141048 -5.463696 1.702446 -1.603301 -0.608260 0.309590 0.330570 -0.307190 
0.199620 16.852690 -1.350700 -4.603930 -7.455238 3.254929 -14.903601 13.303564 2.600267 12.383522 -1.111801 -19.648021 -6.038335 9.168985 26.713531 -0.543664 6.320675 2.544794 -0.126370 -0.542720 -0.008940 18.495990 -11.060523 2.624845 -7.740450 0.947386 -9.906023 10.785361 -6.329702 12.260034 0.085911 -4.342585 3.128787 -0.001690 0.877970 0.178790 -4.207777 -1.306331 -6.727020 13.273833 2.648156 4.539070 -5.208612 3.500035 7.231121 0.327910 -6.167451 -8.323566 -12.358660 16.386998 29.721808 -5.368910 17.227940 6.932430 -0.840383 1.032881 3.084680 -26.204758 -10.889591 -0.140417 39.006400 -56.226290 -19.064663 -4.261308 2.767322 0.167930 0.745220 -0.628300 0.084680 -0.184643 3.243801 2.506250 29.801238 14.403726 -3.020647 -23.125497 33.166757 -5.474219 1.702324 -1.602899 -0.607820 0.308290 0.331250 -0.307550 
0.199900 16.852220 -1.350200 -4.631708 -7.471033 3.192875 -14.904622 13.309028 2.599174 12.422060 -1.091787 -19.599049 -6.033267 9.186584 26.744848 -0.541640 6.330178 2.541257 -0.129670 -0.547760 -0.009210 18.493469 -11.062188 2.627512 -7.735772 0.930990 -9.830714 10.802462 -6.339982 12.253341 0.084960 -4.348614 3.127539 -0.005270 0.876560 0.178800 -4.201547 -1.312348 -6.735441 13.201531 2.706230 4.588624 -4.946416 3.515479 7.297762 0.226697 -6.073291 -8.365909 -12.213556 16.185615 29.908037 -5.433520 17.144470 6.973980 -0.446150 0.933422 3.100895 -25.542395 -10.874977 -0.021378 36.937403 -56.522792 -18.069896 -4.262025 2.803020 0.169390 0.744790 -0.628080 0.082670 -0.359486 3.286082 2.572602 29.732253 14.292241 -3.056286 -23.166872 33.166833 -5.480329 1.702371 -1.601590 -0.608290 0.306960 0.332550 -0.308630 
0.200230 16.851810 -1.349880 -4.654833 -7.481675 3.128863 -14.906438 13.315992 2.597231 12.450048 -1.073497 -19.541829 -6.016727 9.194787 26.759777 -0.539662 6.335572 2.539451 -0.133740 -0.554040 -0.009140 18.490034 -11.063915 2.629885 -7.733173 0.914677 -9.758297 10.816602 -6.351155 12.255442 0.084499 -4.354811 3.125787 -0.009630 0.875060 0.179060 -4.192795 -1.320658 -6.742994 13.105811 2.760184 4.629052 -4.666119 3.523330 7.376528 0.132403 -5.971507 -8.409352 -12.052995 15.981051 30.098838 -5.510850 17.073910 7.036670 -0.067592 0.818701 3.121626 -24.894221 -10.861071 0.103025 34.802478 -56.780958 -17.031907 -4.263706 2.840038 0.170250 0.744660 -0.628230 0.079970 -0.528950 3.338511 2.639613 29.649359 14.193923 -3.087119 -23.191072 33.153772 -5.481706 1.703188 -1.600397 -0.608610 0.304820 0.334110 -0.309960 
